<?xml version="1.0" encoding="utf-8"?>
<svg version="1.1" xmlns="http://www.w3.org/2000/svg" xmlns:xlink="http://www.w3.org/1999/xlink" x="0px" y="0px"
	 viewBox="0 0 24 24" style="enable-background:new 0 0 24 24;" xml:space="preserve">
<path d="M4.75,20c-0.19,0-0.38-0.07-0.53-0.22c-0.29-0.29-0.29-0.77,0-1.06l14.5-14.5c0.29-0.29,0.77-0.29,1.06,0s0.29,0.77,0,1.06
	l-14.5,14.5C5.13,19.93,4.94,20,4.75,20z"/>
<path d="M19.25,20c-0.19,0-0.38-0.07-0.53-0.22L4.22,5.28c-0.29-0.29-0.29-0.77,0-1.06s0.77-0.29,1.06,0l14.5,14.5
	c0.29,0.29,0.29,0.77,0,1.06C19.63,19.93,19.44,20,19.25,20z"/>
</svg>
