<?xml version="1.0" encoding="utf-8"?>
<!-- Generator: Adobe Illustrator 27.5.0, SVG Export Plug-In . SVG Version: 6.00 Build 0)  -->
<svg version="1.1" xmlns="http://www.w3.org/2000/svg" xmlns:xlink="http://www.w3.org/1999/xlink" x="0px" y="0px"
	 viewBox="0 0 2200 2200" style="enable-background:new 0 0 2200 2200;" xml:space="preserve">
<g id="background">
	<rect style="fill:#FFFFFF;" width="2200" height="2200"/>
</g>
<g id="Objects">
	<g>
		<path d="M1551.775,644.403c4.678,0.808,9.358,1.126,13.946,0.979c-30.998-11.977-49.94-44.997-43.533-79.644
			c6.388-34.65,36.007-59.397,69.388-60.383c-4.265-1.657-8.764-2.905-13.445-3.693c-38.752-6.61-76.073,19.973-83.354,59.401
			C1487.499,600.481,1513.021,637.803,1551.775,644.403z"/>
		<path d="M1512.339,818.86c4.292,1.921,8.707,3.372,13.147,4.354c-26.823-19.087-36.924-55.424-22.293-87.116
			c14.613-31.699,49.101-48.205,81.385-40.979c-3.689-2.636-7.701-4.934-12.002-6.837c-35.58-15.833-77.911,0.549-94.549,36.617
			C1461.392,760.957,1476.754,803.035,1512.339,818.86z"/>
		<path d="M1431.752,975.207c3.675,2.867,7.579,5.311,11.62,7.31c-21.285-24.736-22.385-62.107-0.787-89.14
			c21.584-27.044,58.691-34.749,88.046-20.134c-2.925-3.412-6.241-6.577-9.928-9.429c-30.485-23.682-75.111-17.957-99.681,12.811
			C1396.459,907.388,1401.261,951.533,1431.752,975.207z"/>
		<path d="M1326.749,1115.708c-14.757-28.809-7.109-65.099,20.014-86.132c27.111-21.048,64.68-19.832,89.575,1.099
			c-2.025-3.971-4.484-7.795-7.375-11.404c-23.872-29.936-68.229-34.813-99.086-10.87c-30.849,23.937-36.507,67.621-12.627,97.551
			C1320.125,1109.573,1323.319,1112.84,1326.749,1115.708z"/>
		<path d="M1182.666,1216.112c-7.45-31.252,8.465-64.448,39.567-78.351c31.094-13.92,67.034-3.911,86.114,22.129
			c-1.018-4.306-2.49-8.572-4.427-12.732c-15.974-34.483-57.597-49.618-92.985-33.788c-35.379,15.827-51.114,56.621-35.132,91.1
			C1177.722,1208.638,1180.033,1212.539,1182.666,1216.112z"/>
		<path d="M1018.448,1276.956c0.454-31.908,23.878-59.988,57.217-65.788c33.336-5.818,65.497,12.585,77.512,42.311
			c0.071-4.394-0.305-8.86-1.156-13.338c-6.965-37.097-43.347-61.823-81.283-55.213c-37.927,6.609-63.033,42.049-56.058,79.145
			C1015.512,1268.554,1016.785,1272.873,1018.448,1276.956z"/>
		<path d="M912.293,1237.208c33.518,2.831,59.784,28.65,63.819,60.261c1.179-4.206,1.947-8.594,2.261-13.114
			c2.684-37.421-26.041-70.384-64.182-73.616c-38.132-3.231-71.228,24.492-73.902,61.914c-0.333,4.518-0.201,8.992,0.365,13.337
			C849.157,1255.432,878.776,1234.358,912.293,1237.208z"/>
		<path d="M747.136,1206.028c31.632,10.917,50.653,42.227,46.822,73.693c2.164-3.767,3.977-7.812,5.385-12.093
			c11.73-35.427-7.918-74.227-43.91-86.659c-35.983-12.429-74.672,6.219-86.394,41.65c-1.425,4.275-2.391,8.621-2.907,12.949
			C681.798,1208.18,715.51,1195.094,747.136,1206.028z"/>
		<path d="M597.104,1134.079c27.989,18.069,38.94,52.856,27.76,82.364c2.988-3.127,5.701-6.606,8.079-10.411
			c19.759-31.46,9.981-73.636-21.863-94.206c-31.836-20.565-73.674-11.731-93.425,19.734c-2.394,3.794-4.36,7.766-5.887,11.827
			C533.422,1120.635,569.125,1115.995,597.104,1134.079z"/>
		<path d="M384.573,1016.431c26.316-16.935,61.976-13.031,84.815,11.058c22.852,24.076,25.277,60.33,7.514,86.269
			c3.628-2.325,7.073-5.055,10.271-8.179c26.528-25.811,26.977-68.943,0.98-96.347c-25.991-27.398-68.577-28.684-95.099-2.867
			C389.844,1009.476,387.006,1012.859,384.573,1016.431z"/>
		<path d="M1658.478,898.561c4.223,1.832,8.564,3.201,12.93,4.107c-26.405-18.42-36.422-54.038-22.127-85.419
			c14.278-31.388,48.125-48.095,79.866-41.419c-3.631-2.544-7.58-4.751-11.811-6.566c-35.002-15.1-76.555,1.591-92.813,37.305
			C1608.27,842.274,1623.473,883.47,1658.478,898.561z"/>
		<path d="M1555.615,992.961c-24.126,30.711-19.124,74.142,11.178,96.983c3.652,2.767,7.529,5.113,11.538,7.018
			c-21.2-24.035-22.501-60.849-1.287-87.839c21.2-27.001,57.867-35.191,86.993-21.26c-2.913-3.315-6.212-6.381-9.876-9.133
			C1623.865,955.882,1579.747,962.242,1555.615,992.961z"/>
		<path d="M1550.99,1174.259c-2.05-3.889-4.532-7.626-7.441-11.144c-24.027-29.181-68.239-33.281-98.76-9.135
			c-30.514,24.14-35.774,67.376-11.739,96.552c2.894,3.53,6.103,6.704,9.542,9.482c-14.941-28.215-7.636-64.181,19.192-85.393
			C1488.6,1153.394,1526.021,1153.988,1550.99,1174.259z"/>
		<path d="M1397.928,1326.22c-1.065-4.252-2.584-8.458-4.568-12.553c-16.362-33.945-58.206-48.372-93.478-32.205
			c-35.263,16.163-50.59,56.795-34.219,90.736c1.967,4.103,4.323,7.936,6.997,11.44c-7.791-30.861,7.795-63.967,38.796-78.166
			C1342.447,1291.256,1378.545,1300.682,1397.928,1326.22z"/>
		<path d="M1212.631,1434.997c0.022-4.373-0.408-8.814-1.314-13.263c-7.427-36.853-44.31-61.131-82.4-54.212
			c-38.081,6.917-62.937,42.408-55.5,79.259c0.887,4.452,2.218,8.739,3.936,12.786c0.095-31.755,23.343-59.908,56.817-65.979
			C1167.642,1387.5,1200.206,1405.525,1212.631,1434.997z"/>
		<path d="M864.342,1460.934c-0.289,4.523-0.109,9.001,0.508,13.347c8.262-30.61,37.934-51.793,71.793-49.043
			c33.86,2.732,60.641,28.493,65.047,60.12c1.146-4.213,1.874-8.608,2.145-13.133c2.315-37.462-27.023-70.367-65.554-73.486
			C899.76,1395.622,866.648,1423.471,864.342,1460.934z"/>
		<path d="M737.045,1388.545c32.072,11.124,51.524,42.75,47.861,74.444c2.164-3.788,3.971-7.856,5.366-12.165
			c11.628-35.655-8.509-74.83-45.002-87.499c-36.484-12.665-75.496,5.976-87.115,41.634c-1.413,4.302-2.361,8.679-2.853,13.037
			C670.965,1390.459,704.979,1377.404,737.045,1388.545z"/>
		<path d="M570.378,1279.064c-32.323-21.141-74.698-12.529-94.625,19.24c-2.415,3.83-4.397,7.845-5.933,11.954
			c21.88-22.91,58.05-27.317,86.457-8.726c28.416,18.576,39.613,53.975,28.366,83.829c3.019-3.149,5.759-6.657,8.159-10.498
			C612.737,1343.1,602.708,1300.211,570.378,1279.064z"/>
		<path d="M325.323,1149.463c-3.26,3.148-6.142,6.578-8.613,10.205c26.725-17.056,62.936-12.725,86.125,12.111
			c23.202,24.823,25.659,61.898,7.618,88.236c3.685-2.342,7.184-5.099,10.43-8.26c26.942-26.125,27.404-70.199,1.008-98.454
			C395.503,1125.053,352.259,1123.332,325.323,1149.463z"/>
		<path d="M1792.033,957.889c3.829,1.673,7.774,2.921,11.748,3.747c-23.846-16.832-32.482-49.414-18.979-78.14
			c13.488-28.732,44.633-44.047,73.52-37.965c-3.279-2.324-6.853-4.341-10.69-5.998c-31.744-13.787-69.926,1.519-85.283,34.211
			C1746.995,906.428,1760.286,944.11,1792.033,957.889z"/>
		<path d="M1704.026,1044.279c-20.886,29.294-14.594,68.606,14.057,87.786c3.454,2.324,7.096,4.253,10.843,5.772
			c-20.362-20.76-23.004-54.242-4.638-79.987c18.352-25.754,51.611-35.2,78.834-24.077c-2.798-2.864-5.941-5.48-9.405-7.79
			C1765.071,1006.797,1724.917,1014.978,1704.026,1044.279z"/>
		<path d="M1615.855,1197.771c-25.679,25.03-26.482,64.707-1.787,88.601c2.975,2.892,6.205,5.43,9.61,7.585
			c-16.286-23.975-12.937-57.285,9.641-79.281c22.566-22.007,56.858-25.375,81.582-9.637c-2.236-3.306-4.854-6.429-7.841-9.309
			C1682.37,1171.831,1641.541,1172.735,1615.855,1197.771z"/>
		<path d="M1501.896,1329.944c-29.669,19.961-37.561,58.74-17.617,86.599c2.4,3.37,5.114,6.437,8.068,9.16
			c-11.681-26.433-2.433-58.512,23.651-76.051c26.074-17.552,60.312-14.721,81.744,5.142c-1.601-3.643-3.61-7.175-6.024-10.535
			C1571.781,1316.396,1531.572,1309.978,1501.896,1329.944z"/>
		<path d="M1366.317,1436.598c-32.765,14.108-47.649,50.677-33.231,81.663c1.732,3.746,3.827,7.253,6.221,10.466
			c-6.58-28.067,8.399-57.816,37.203-70.209c28.797-12.409,61.84-3.329,79.19,20.092c-0.898-3.867-2.216-7.699-3.964-11.438
			C1437.325,1436.182,1399.089,1422.486,1366.317,1436.598z"/>
		<path d="M1213.293,1513.648c-34.799,7.528-56.403,40.484-48.238,73.598c0.976,4.001,2.354,7.837,4.081,11.444
			c-1.05-28.75,19.336-55.01,49.926-61.618c30.586-6.625,61.201,8.61,73.692,34.877c-0.137-3.959-0.691-7.966-1.684-11.963
			C1282.914,1526.871,1248.1,1506.119,1213.293,1513.648z"/>
		<path d="M1046.397,1556.994c-35.548,0.418-63.268,28.344-61.898,62.366c0.156,4.108,0.737,8.137,1.705,12.01
			c4.717-28.334,29.909-49.952,61.156-50.311c31.246-0.376,58.153,20.639,65.124,48.827c0.657-3.901,0.916-7.93,0.743-12.039
			C1111.866,1583.826,1081.954,1556.576,1046.397,1556.994z"/>
		<path d="M796.335,1611.118c10.315-26.773,39.314-42.86,69.963-36.931c30.651,5.913,52.753,31.881,53.905,60.86
			c1.428-3.684,2.491-7.575,3.148-11.629c5.511-33.56-18.278-66.232-53.155-72.969c-34.869-6.736-67.611,15.015-73.114,48.576
			C796.408,1603.076,796.166,1607.134,796.335,1611.118z"/>
		<path d="M701.571,1505.834c-32.856-13.426-69.205,1.479-81.169,33.288c-1.454,3.837-2.485,7.766-3.1,11.703
			c15.352-24.215,46.924-34.303,75.801-22.494c28.883,11.793,45.461,41.564,40.915,70.187c2.121-3.33,3.925-6.935,5.362-10.779
			C751.352,1555.933,734.435,1519.263,701.571,1505.834z"/>
		<path d="M546.465,1427.762c-29.714-19.405-68.226-11.664-85.999,17.292c-2.154,3.491-3.911,7.152-5.261,10.9
			c19.661-20.86,52.569-24.778,78.683-7.714c26.123,17.049,36.758,49.414,26.871,76.647c2.713-2.867,5.167-6.063,7.307-9.564
			C585.848,1486.372,576.186,1447.171,546.465,1427.762z"/>
		<path d="M1891.88,795.779c-36.246-93.669-88.563-179.443-155.493-254.938c-1.825-2.06-3.66-4.109-5.499-6.14
			c-38.555-42.65-81.602-81.487-127.946-115.432c-46.728-34.226-97.087-63.681-149.679-87.546
			c-109.631-49.749-226.743-74.973-348.083-74.973c-113.831,0-224.266,22.297-328.235,66.273
			C676.529,365.495,586.35,426.294,508.912,503.732c-77.438,77.438-138.237,167.617-180.709,268.032
			C284.228,875.734,261.93,986.168,261.93,1100c0,113.831,22.297,224.266,66.273,328.235
			c42.472,100.416,103.271,190.595,180.709,268.032c77.438,77.438,167.616,138.237,268.032,180.71
			c103.97,43.975,214.404,66.272,328.235,66.272c113.832,0,224.267-22.298,328.236-66.272
			c100.415-42.473,190.594-103.272,268.032-180.71c77.438-77.438,138.236-167.616,180.709-268.032
			c43.975-103.97,66.272-214.404,66.272-328.235C1948.43,995.103,1929.403,892.748,1891.88,795.779z M294.445,1035.483
			c0.729,7.713,0.22,15.433-1.472,22.843C293.355,1050.692,293.852,1043.079,294.445,1035.483z M741.347,1701.286
			c2.25,0.494,4.503,1.097,6.751,1.842c0.266,0.088,0.524,0.188,0.787,0.279C746.358,1702.711,743.847,1702.003,741.347,1701.286z
			 M1838.921,1077.241c1.117-7.724,3.712-15.464,7.906-22.818C1844.287,1062.053,1841.646,1069.659,1838.921,1077.241z
			 M1765.955,1236.786c1.667-3.896,3.752-7.696,6.269-11.34C1770.155,1229.237,1768.069,1233.018,1765.955,1236.786z
			 M1544.78,1512.303c3.158-3.564,6.776-6.85,10.85-9.764C1552.035,1505.82,1548.42,1509.077,1544.78,1512.303z M1402.148,1617.192
			c5.025-4.461,10.892-8.248,17.524-11.103c0.486-0.209,0.976-0.398,1.464-0.595
			C1414.849,1609.47,1408.522,1613.375,1402.148,1617.192z M530.125,524.945c74.692-74.692,161.666-133.333,258.506-174.292
			c100.252-42.403,206.754-63.903,316.549-63.903c117.035,0,229.976,24.323,335.686,72.292c9.601,4.357,19.124,8.909,28.562,13.647
			c-4.559,10.576-6.758,22.377-5.937,34.651c2.69,40.39,36.96,70.57,76.54,67.37c4.78-0.37,9.44-1.23,13.9-2.52
			c-33.33-4-60.09-31.6-62.45-67.1c-0.461-6.909,0.032-13.669,1.365-20.147c32.029,17.406,62.949,36.979,92.369,58.529
			c41.471,30.376,80.199,64.82,115.283,102.495c-27.805,5.735-51.022,28.381-56.568,58.494c-7.15,38.78,17.72,75.25,55.54,81.42
			c4.56,0.76,9.13,1.04,13.61,0.86c-30.24-11.53-48.7-43.82-42.4-77.9c4.341-23.604,19.551-42.623,39.308-52.507
			c1.319,1.465,2.638,2.93,3.948,4.408c30.464,34.362,57.783,70.931,81.82,109.463c-3.938,6.052-6.998,12.826-8.926,20.177
			c-9.2,35.07,10.79,69.85,44.66,77.66c4.09,0.95,8.21,1.47,12.28,1.56c-26.62-12.27-41.09-42.86-32.99-73.69
			c0.036-0.138,0.078-0.272,0.115-0.409c20.406,35.538,38.119,72.629,53.008,111.105c1.395,3.605,2.754,7.219,4.095,10.839
			c2.05,12.347,3.634,25.07,4.682,38.155c-1.958,3.328-3.663,6.861-5.06,10.59c-7.421,19.779-4.669,40.363,5.598,55.823
			c-1.862,29.524-6.587,60.552-14.83,92.987c-13.056,5.535-24.62,15.365-32.222,28.701c-12.203,21.409-10.907,46.096,1.229,64.078
			c-10.235,25.871-21.541,51.402-33.855,76.499c-14.054,3.294-27.335,11.238-37.122,23.438
			c-14.988,18.683-17.876,42.442-9.607,61.815c-14.128,23.228-29.139,45.942-44.981,68.054
			c-14.364,1.046-28.696,6.789-40.262,17.268c-17.495,15.85-24.147,38.428-19.441,58.64c-17.208,19.957-35.141,39.245-53.742,57.793
			c-14.639-1.532-30.103,1.785-43.509,10.461c-19.869,12.858-30.076,34.146-28.627,54.901
			c-19.598,16.096-39.769,31.398-60.472,45.83c-14.548-4.42-30.937-3.901-46.112,2.635c-21.677,9.337-35.281,28.541-37.383,49.182
			c-21.875,11.975-44.214,22.997-66.973,32.995c-13.595-6.963-29.902-9.351-46.065-5.543c-21.905,5.161-38.152,20.429-44.55,39.134
			c-25.24,7.664-50.887,14.072-76.89,19.13c-11.625-7.923-26.024-12.322-41.246-11.581c-19.26,0.938-35.786,9.921-46.236,23.302
			c-15.36,1.137-30.816,1.803-46.361,1.971c-13.754,0.149-27.247,0.052-40.486-0.278c-10.078-10.548-23.85-18.005-39.532-20.173
			c-18.97-2.623-36.76,3.04-49.504,14.089c-28.243-3.229-55.154-7.62-80.793-13.057c-7.638-15.205-21.4-27.723-39.051-33.569
			c-19.773-6.548-39.961-3.237-54.994,7.208c-24.964-8.856-48.455-18.81-70.559-29.696c-4.594-16.931-16.136-32.338-33.014-41.483
			c-15.304-8.292-32.099-9.868-46.924-5.728c-30.931-21.664-58.351-45.296-82.658-70.136c-3.962-6.094-8.973-11.667-14.987-16.403
			c-0.492-0.388-0.99-0.762-1.489-1.133c-57.818-64.09-96.351-134.752-122.016-199.684c21.339-8.079,46.792-3.378,65.202,14.266
			c22.541,21.579,27.03,55.356,12.289,80.302c3.196-2.318,6.198-5.007,8.948-8.053c22.82-25.179,20.548-65.496-5.096-90.059
			c-24.223-23.202-60.629-24.018-83.815-2.796c-5.375-13.972-10.156-27.655-14.411-40.927c-2.323-10.5-4.438-21.048-6.339-31.642
			c5.163-17.688,2.774-37.729-7.882-54.542c-3.272-29.778-4.922-59.869-4.922-90.212c0-5.54,0.07-11.069,0.179-16.592
			c25.99-20.869,33.604-59.029,16.431-89.808c-2.366-4.245-5.111-8.124-8.133-11.663c6.011-41.44,15.199-82.228,27.558-122.187
			c17.625,4.137,33.645,15.49,43.445,32.771c16.34,28.79,9.99,64.46-13.42,85.3c4.07-1.38,8.06-3.19,11.9-5.45
			c31.87-18.61,42.65-60.25,24.06-93.01c-13.029-22.974-37.045-35.468-61.217-34.463c6.85-20.719,14.542-41.212,23.101-61.446
			C396.792,686.611,455.433,599.638,530.125,524.945z"/>
	</g>
	<path style="fill:#FFFFFF;" d="M782.829,1757.032c-8.435,22.164-31.748,35.818-55.889,31.331s-40.992-25.605-40.9-49.319
		c8.435-22.164,31.748-35.818,55.889-31.331C766.069,1712.199,782.921,1733.317,782.829,1757.032z"/>
	<path style="fill:#FFFFFF;" d="M967.194,1784.245c-5.124,23.154-26.206,40.051-50.742,39.12
		c-24.536-0.931-44.278-19.376-47.633-42.852c5.124-23.154,26.206-40.051,50.742-39.12
		C944.097,1742.323,963.839,1760.769,967.194,1784.245z"/>
	<path style="fill:#FFFFFF;" d="M1150.23,1766.222c-0.233,23.713-17.372,44.599-41.572,48.754
		c-24.2,4.155-47.324-9.817-55.454-32.094c0.233-23.713,17.372-44.599,41.572-48.754
		C1118.975,1729.972,1142.099,1743.944,1150.23,1766.222z"/>
	<path style="fill:#FFFFFF;" d="M1249.563,1847.951c-0.182,18.508-13.559,34.809-32.446,38.052s-36.936-7.662-43.281-25.049
		c0.182-18.508,13.559-34.809,32.446-38.052C1225.169,1819.659,1243.217,1830.563,1249.563,1847.951z"/>
	<path style="fill:#FFFFFF;" d="M1049.44,1868.133c-3.339,18.362-19.415,32.28-38.739,32.28c-19.324,0-35.4-13.917-38.739-32.28
		c3.339-18.362,19.415-32.28,38.739-32.28C1030.025,1835.853,1046.101,1849.77,1049.44,1868.133z"/>
	<path style="fill:#FFFFFF;" d="M1458.85,1765.98c4.938,17.007-2.823,35.632-19.233,43.812c-16.411,8.18-35.954,3.167-46.563-11.014
		c-4.938-17.007,2.823-35.631,19.233-43.812S1448.242,1751.8,1458.85,1765.98z"/>
	<path style="fill:#FFFFFF;" d="M1626.95,1651.985c7.651,16.518,2.649,36.646-12.761,47.5c-15.41,10.854-36.046,8.786-49.023-3.982
		c-7.651-16.518-2.649-36.646,12.761-47.5C1593.337,1637.149,1613.974,1639.218,1626.95,1651.985z"/>
	<path style="fill:#FFFFFF;" d="M1745.896,1510.69c11.682,12.963,12.797,32.813,1.755,47.114
		c-11.041,14.302-30.527,18.247-46.025,10.227c-11.682-12.963-12.797-32.813-1.755-47.114
		C1710.912,1506.615,1730.398,1502.669,1745.896,1510.69z"/>
	<path style="fill:#FFFFFF;" d="M1323.482,1707.02c4.154,23.348-8.83,47.042-31.845,55.598
		c-23.015,8.556-48.323-0.901-60.431-21.292c-4.154-23.348,8.83-47.041,31.845-55.598
		C1286.066,1677.171,1311.374,1686.629,1323.482,1707.02z"/>
	<path style="fill:#FFFFFF;" d="M1477.645,1616.563c7.527,22.488-1.849,47.827-23.363,59.661
		c-21.514,11.833-47.935,6.182-62.896-12.217c-7.527-22.488,1.849-47.827,23.363-59.661
		C1436.263,1592.514,1462.683,1598.164,1477.645,1616.563z"/>
	<path style="fill:#FFFFFF;" d="M1616.128,1499.021c10.698,21.164,5.083,47.592-14.495,62.411
		c-19.578,14.819-46.538,13.046-64.002-2.997c-10.698-21.164-5.083-47.592,14.495-62.411
		C1571.704,1481.204,1598.664,1482.977,1616.128,1499.021z"/>
	<path style="fill:#FFFFFF;" d="M1735.161,1360.724c15.187,18.214,15.664,45.227-0.077,64.072
		c-15.741,18.845-42.408,23.185-63.034,11.484c-15.187-18.214-15.664-45.227,0.077-64.072
		C1687.867,1353.363,1714.534,1349.023,1735.161,1360.724z"/>
	<path style="fill:#FFFFFF;" d="M1832.617,1203.329c17.454,16.055,21.485,42.77,8.364,63.524
		c-13.121,20.754-38.984,28.569-60.973,19.687c-17.454-16.055-21.485-42.77-8.364-63.524S1810.629,1194.446,1832.617,1203.329z"/>
	<path style="fill:#FFFFFF;" d="M1900.119,1027.81c19.763,13.107,27.949,38.855,18.258,61.415
		c-9.691,22.561-34.001,34.349-57.114,29.039c-19.763-13.107-27.949-38.855-18.258-61.415
		C1852.697,1034.288,1877.007,1022.5,1900.119,1027.81z"/>
</g>
</svg>
