<?xml version="1.0" encoding="utf-8"?>
<svg version="1.1" xmlns="http://www.w3.org/2000/svg" xmlns:xlink="http://www.w3.org/1999/xlink" x="0px" y="0px"
	 viewBox="0 0 24 24" style="enable-background:new 0 0 24 24;" xml:space="preserve">
<path d="M19.75,7.5H4.25C3.84,7.5,3.5,7.16,3.5,6.75S3.84,6,4.25,6h15.5c0.41,0,0.75,0.34,0.75,0.75S20.16,7.5,19.75,7.5z"/>
<path d="M19.75,12.75H4.25c-0.41,0-0.75-0.34-0.75-0.75s0.34-0.75,0.75-0.75h15.5c0.41,0,0.75,0.34,0.75,0.75
	S20.16,12.75,19.75,12.75z"/>
<path d="M19.75,18H4.25c-0.41,0-0.75-0.34-0.75-0.75s0.34-0.75,0.75-0.75h15.5c0.41,0,0.75,0.34,0.75,0.75S20.16,18,19.75,18z"/>
</svg>
